<?xml version="1.0" encoding="utf-8"?>
<svg version="1.1" id="Layer_1" xmlns="http://www.w3.org/2000/svg" xmlns:xlink="http://www.w3.org/1999/xlink" x="0px" y="0px"
	 viewBox="0 0 16 16" style="enable-background:new 0 0 16 16;" xml:space="preserve">
<style type="text/css">
	.st0{fill:#010101;}
</style>
<g id="XMLID_80_">
	<path id="XMLID_81_" class="st0" d="M 15.476562 10.050781 L 10.039062 15.476562 C 10.027344 15.488281 9.992188 15.488281
		9.945312 15.488281 L 2.53125 13.511719 C 2.519531 13.511719 2.488281 13.5 2.476562 13.457031 L 0.5 6.042969
		C 0.5 6.03125 0.5 5.984375 0.511719 5.949219 L 5.949219 0.535156 C 5.960938 0.523438 5.996094 0.523438 6.042969
		0.523438 L 13.457031 2.519531 C 13.46875 2.519531 13.5 2.53125 13.511719 2.578125 L 15.488281 9.980469 C 15.523438
		10.003906 15.511719 10.027344 15.476562 10.050781 Z M 8.214844 4.160156 L 0.941406 6.125 C 0.929688 6.125 0.929688
		6.136719 0.941406 6.171875 L 6.273438 11.503906 C 6.285156 11.515625 6.285156 11.503906 6.320312 11.503906
		L 8.285156 4.242188 C 8.25 4.160156 8.214844 4.160156 8.214844 4.160156 Z M 8.214844 4.160156 "/>
</g>
</svg>
